<svg width="811" height="303" viewBox="0 0 811 303" fill="none" xmlns="http://www.w3.org/2000/svg">
<g filter="url(#filter0_b_186_40)">
<rect x="128" y="92" width="120" height="120" rx="12" fill="url(#paint0_linear_186_40)"/>
<path d="M155.908 143.36C156.069 141.355 156.979 139.485 158.457 138.121C159.935 136.757 161.873 136 163.884 136H212.116C214.127 136 216.065 136.757 217.543 138.121C219.021 139.485 219.931 141.355 220.092 143.36L223.304 183.36C223.392 184.461 223.252 185.568 222.891 186.612C222.531 187.656 221.958 188.613 221.209 189.425C220.46 190.237 219.552 190.884 218.54 191.328C217.529 191.771 216.436 192 215.332 192H160.668C159.564 192 158.471 191.771 157.46 191.328C156.448 190.884 155.54 190.237 154.791 189.425C154.042 188.613 153.469 187.656 153.109 186.612C152.748 185.568 152.608 184.461 152.696 183.36L155.908 143.36V143.36Z" stroke="#D864D8" stroke-width="2" stroke-linecap="round" stroke-linejoin="round"/>
<path d="M204 148V128C204 123.757 202.314 119.687 199.314 116.686C196.313 113.686 192.243 112 188 112C183.757 112 179.687 113.686 176.686 116.686C173.686 119.687 172 123.757 172 128V148" stroke="#D864D8" stroke-width="2" stroke-linecap="round" stroke-linejoin="round"/>
<rect x="128.5" y="92.5" width="119" height="119" rx="11.5" stroke="#1B1C26"/>
</g>
<g filter="url(#filter1_b_186_40)">
<rect x="273" y="92" width="120" height="120" rx="12" fill="url(#paint1_linear_186_40)"/>
<path d="M293 180H373M301 132C301 129.878 301.843 127.843 303.343 126.343C304.843 124.843 306.878 124 309 124H357C359.122 124 361.157 124.843 362.657 126.343C364.157 127.843 365 129.878 365 132V168H301V132Z" stroke="#BD54C6" stroke-width="2" stroke-linecap="round" stroke-linejoin="round"/>
<rect x="273.5" y="92.5" width="119" height="119" rx="11.5" stroke="#1B1C26"/>
</g>
<g filter="url(#filter2_b_186_40)">
<rect x="418" y="92" width="120" height="120" rx="12" fill="url(#paint2_linear_186_40)"/>
<path d="M470.8 152C470.163 152 469.553 152.253 469.103 152.703C468.653 153.153 468.4 153.763 468.4 154.4C468.4 155.036 468.653 155.647 469.103 156.097C469.553 156.547 470.163 156.8 470.8 156.8H485.2C485.836 156.8 486.447 156.547 486.897 156.097C487.347 155.647 487.6 155.036 487.6 154.4C487.6 153.763 487.347 153.153 486.897 152.703C486.447 152.253 485.836 152 485.2 152H470.8ZM439.6 126.8C439.6 122.163 443.363 118.4 448 118.4H508C512.637 118.4 516.4 122.163 516.4 126.8V134C516.4 137.35 514.437 140.24 511.6 141.593V171.2C511.6 175.019 510.083 178.682 507.382 181.382C504.682 184.083 501.019 185.6 497.2 185.6H458.8C454.981 185.6 451.318 184.083 448.618 181.382C445.917 178.682 444.4 175.019 444.4 171.2V141.593C442.963 140.912 441.749 139.837 440.9 138.492C440.05 137.148 439.599 135.59 439.6 134V126.8ZM448 123.2C447.045 123.2 446.13 123.579 445.454 124.254C444.779 124.929 444.4 125.845 444.4 126.8V134C444.4 135.987 446.013 137.6 448 137.6H508C508.955 137.6 509.87 137.221 510.546 136.545C511.221 135.87 511.6 134.955 511.6 134V126.8C511.6 125.845 511.221 124.929 510.546 124.254C509.87 123.579 508.955 123.2 508 123.2H448ZM449.2 142.4V171.2C449.2 173.746 450.211 176.188 452.012 177.988C453.812 179.788 456.254 180.8 458.8 180.8H497.2C499.746 180.8 502.188 179.788 503.988 177.988C505.789 176.188 506.8 173.746 506.8 171.2V142.4H449.2Z" fill="#369EFF"/>
<rect x="418.5" y="92.5" width="119" height="119" rx="11.5" stroke="#1B1C26"/>
</g>
<g filter="url(#filter3_b_186_40)">
<rect x="563" y="92" width="120" height="120" rx="12" fill="url(#paint3_linear_186_40)"/>
<path d="M601.4 113.595C600.763 113.595 600.153 113.848 599.703 114.298C599.253 114.748 599 115.359 599 115.995V156.814C599 159.36 600.011 161.802 601.812 163.603C603.612 165.403 606.054 166.414 608.6 166.414H613.419V180.805C613.419 183.351 614.431 185.793 616.231 187.593C618.031 189.393 620.473 190.405 623.019 190.405C625.565 190.405 628.007 189.393 629.807 187.593C631.608 185.793 632.619 183.351 632.619 180.805V166.414H637.4C639.946 166.414 642.388 165.403 644.188 163.603C645.989 161.802 647 159.36 647 156.814V116C647 115.363 646.747 114.753 646.297 114.303C645.847 113.853 645.237 113.6 644.6 113.6H601.4V113.595ZM603.8 152.014H642.2V156.814C642.2 158.087 641.694 159.308 640.794 160.209C639.894 161.109 638.673 161.614 637.4 161.614H630.219C629.583 161.614 628.972 161.867 628.522 162.317C628.072 162.767 627.819 163.378 627.819 164.014V180.805C627.819 182.078 627.313 183.299 626.413 184.199C625.513 185.099 624.292 185.605 623.019 185.605C621.746 185.605 620.525 185.099 619.625 184.199C618.725 183.299 618.219 182.078 618.219 180.805V164.014C618.219 163.378 617.966 162.767 617.516 162.317C617.066 161.867 616.456 161.614 615.819 161.614H608.6C607.327 161.614 606.106 161.109 605.206 160.209C604.306 159.308 603.8 158.087 603.8 156.814V152.014ZM642.2 147.214H603.8V118.4H623V125.6C623 126.237 623.253 126.847 623.703 127.297C624.153 127.747 624.763 128 625.4 128C626.037 128 626.647 127.747 627.097 127.297C627.547 126.847 627.8 126.237 627.8 125.6V118.4H632.6V130.41C632.6 131.046 632.853 131.657 633.303 132.107C633.753 132.557 634.363 132.81 635 132.81C635.637 132.81 636.247 132.557 636.697 132.107C637.147 131.657 637.4 131.046 637.4 130.41V118.4H642.2V147.219V147.214Z" fill="#3CB179"/>
<rect x="563.5" y="92.5" width="119" height="119" rx="11.5" stroke="#1B1C26"/>
</g>
<defs>
<filter id="filter0_b_186_40" x="-122" y="-158" width="620" height="620" filterUnits="userSpaceOnUse" color-interpolation-filters="sRGB">
<feFlood flood-opacity="0" result="BackgroundImageFix"/>
<feGaussianBlur in="BackgroundImageFix" stdDeviation="125"/>
<feComposite in2="SourceAlpha" operator="in" result="effect1_backgroundBlur_186_40"/>
<feBlend mode="normal" in="SourceGraphic" in2="effect1_backgroundBlur_186_40" result="shape"/>
</filter>
<filter id="filter1_b_186_40" x="23" y="-158" width="620" height="620" filterUnits="userSpaceOnUse" color-interpolation-filters="sRGB">
<feFlood flood-opacity="0" result="BackgroundImageFix"/>
<feGaussianBlur in="BackgroundImageFix" stdDeviation="125"/>
<feComposite in2="SourceAlpha" operator="in" result="effect1_backgroundBlur_186_40"/>
<feBlend mode="normal" in="SourceGraphic" in2="effect1_backgroundBlur_186_40" result="shape"/>
</filter>
<filter id="filter2_b_186_40" x="168" y="-158" width="620" height="620" filterUnits="userSpaceOnUse" color-interpolation-filters="sRGB">
<feFlood flood-opacity="0" result="BackgroundImageFix"/>
<feGaussianBlur in="BackgroundImageFix" stdDeviation="125"/>
<feComposite in2="SourceAlpha" operator="in" result="effect1_backgroundBlur_186_40"/>
<feBlend mode="normal" in="SourceGraphic" in2="effect1_backgroundBlur_186_40" result="shape"/>
</filter>
<filter id="filter3_b_186_40" x="313" y="-158" width="620" height="620" filterUnits="userSpaceOnUse" color-interpolation-filters="sRGB">
<feFlood flood-opacity="0" result="BackgroundImageFix"/>
<feGaussianBlur in="BackgroundImageFix" stdDeviation="125"/>
<feComposite in2="SourceAlpha" operator="in" result="effect1_backgroundBlur_186_40"/>
<feBlend mode="normal" in="SourceGraphic" in2="effect1_backgroundBlur_186_40" result="shape"/>
</filter>
<linearGradient id="paint0_linear_186_40" x1="188" y1="92" x2="188" y2="212" gradientUnits="userSpaceOnUse">
<stop stop-color="#1D1F2D" stop-opacity="0.271187"/>
<stop offset="0.0001" stop-color="#1D1F2D" stop-opacity="0"/>
<stop offset="1" stop-color="#1D1F2D"/>
</linearGradient>
<linearGradient id="paint1_linear_186_40" x1="333" y1="92" x2="333" y2="212" gradientUnits="userSpaceOnUse">
<stop stop-color="#1D1F2D" stop-opacity="0.271187"/>
<stop offset="0.0001" stop-color="#1D1F2D" stop-opacity="0"/>
<stop offset="1" stop-color="#1D1F2D"/>
</linearGradient>
<linearGradient id="paint2_linear_186_40" x1="478" y1="92" x2="478" y2="212" gradientUnits="userSpaceOnUse">
<stop stop-color="#1D1F2D" stop-opacity="0.271187"/>
<stop offset="0.0001" stop-color="#1D1F2D" stop-opacity="0"/>
<stop offset="1" stop-color="#1D1F2D"/>
</linearGradient>
<linearGradient id="paint3_linear_186_40" x1="623" y1="92" x2="623" y2="212" gradientUnits="userSpaceOnUse">
<stop stop-color="#1D1F2D" stop-opacity="0.271187"/>
<stop offset="0.0001" stop-color="#1D1F2D" stop-opacity="0"/>
<stop offset="1" stop-color="#1D1F2D"/>
</linearGradient>
</defs>
</svg>
