<svg width="330" height="319" viewBox="0 0 330 319" fill="none" xmlns="http://www.w3.org/2000/svg">
<mask id="mask0_9_85" style="mask-type:alpha" maskUnits="userSpaceOnUse" x="45" y="45" width="239" height="231">
<path d="M139.816 53.6083C154.724 42.7776 174.91 42.7776 189.817 53.6083L266.228 109.124C281.135 119.955 287.373 139.153 281.679 156.678L252.492 246.503C246.798 264.028 230.468 275.893 212.041 275.893H117.593C99.1662 275.893 82.8352 264.028 77.141 246.503L47.955 156.678C42.2609 139.153 48.4987 119.955 63.406 109.124L139.816 53.6083Z" fill="#D9D9D9"/>
</mask>
<g mask="url(#mask0_9_85)">
<g filter="url(#filter0_f_9_85)">
<path d="M177.222 237.478C233.991 237.478 280.011 189.871 280.011 131.144C280.011 72.4182 233.991 24.8111 177.222 24.8111C120.453 24.8111 74.4333 72.4182 74.4333 131.144C74.4333 189.871 120.453 237.478 177.222 237.478Z" fill="url(#paint0_linear_9_85)"/>
</g>
<g filter="url(#filter1_f_9_85)">
<path d="M209.122 365.078C265.891 365.078 311.911 317.471 311.911 258.744C311.911 200.018 265.891 152.411 209.122 152.411C152.353 152.411 106.333 200.018 106.333 258.744C106.333 317.471 152.353 365.078 209.122 365.078Z" fill="url(#paint1_linear_9_85)"/>
</g>
<g filter="url(#filter2_f_9_85)">
<path d="M85.0667 319C141.835 319 187.856 271.393 187.856 212.667C187.856 153.94 141.835 106.333 85.0667 106.333C28.298 106.333 -17.7222 153.94 -17.7222 212.667C-17.7222 271.393 28.298 319 85.0667 319Z" fill="url(#paint2_linear_9_85)"/>
</g>
</g>
<defs>
<filter id="filter0_f_9_85" x="-25.5667" y="-75.1889" width="405.578" height="412.667" filterUnits="userSpaceOnUse" color-interpolation-filters="sRGB">
<feFlood flood-opacity="0" result="BackgroundImageFix"/>
<feBlend mode="normal" in="SourceGraphic" in2="BackgroundImageFix" result="shape"/>
<feGaussianBlur stdDeviation="50" result="effect1_foregroundBlur_9_85"/>
</filter>
<filter id="filter1_f_9_85" x="62.3333" y="108.411" width="293.578" height="300.667" filterUnits="userSpaceOnUse" color-interpolation-filters="sRGB">
<feFlood flood-opacity="0" result="BackgroundImageFix"/>
<feBlend mode="normal" in="SourceGraphic" in2="BackgroundImageFix" result="shape"/>
<feGaussianBlur stdDeviation="22" result="effect1_foregroundBlur_9_85"/>
</filter>
<filter id="filter2_f_9_85" x="-117.722" y="6.33334" width="405.578" height="412.667" filterUnits="userSpaceOnUse" color-interpolation-filters="sRGB">
<feFlood flood-opacity="0" result="BackgroundImageFix"/>
<feBlend mode="normal" in="SourceGraphic" in2="BackgroundImageFix" result="shape"/>
<feGaussianBlur stdDeviation="50" result="effect1_foregroundBlur_9_85"/>
</filter>
<linearGradient id="paint0_linear_9_85" x1="177.222" y1="24.8111" x2="177.222" y2="237.478" gradientUnits="userSpaceOnUse">
<stop stop-color="#0057FF"/>
<stop offset="1" stop-color="#AD00FF" stop-opacity="0.69"/>
</linearGradient>
<linearGradient id="paint1_linear_9_85" x1="209.122" y1="152.411" x2="209.122" y2="365.078" gradientUnits="userSpaceOnUse">
<stop stop-color="#0057FF"/>
<stop offset="1" stop-color="#AD00FF" stop-opacity="0.69"/>
</linearGradient>
<linearGradient id="paint2_linear_9_85" x1="85.0667" y1="106.333" x2="85.0667" y2="319" gradientUnits="userSpaceOnUse">
<stop stop-color="#8F00FF"/>
<stop offset="1" stop-color="#412B97" stop-opacity="0.69"/>
</linearGradient>
</defs>
</svg>
