<svg width="74" height="52" viewBox="0 0 74 52" fill="none" xmlns="http://www.w3.org/2000/svg">
<path opacity="0.9" d="M35.15 12H57.8C64.4274 12 69.8 17.3726 69.8 24V36C69.8 42.6274 64.4274 48 57.8 48H25.7858C24.4176 48 23.4533 46.6569 23.8909 45.3604L35.15 12Z" fill="#F43787"/>
<g opacity="0.9">
<path d="M37.1275 38.247C36.839 39.0551 36.0671 39.5891 35.2091 39.5742L13.9982 39.2039C7.37175 39.0883 2.09376 33.6227 2.20943 26.9963L2.41886 14.9982C2.53452 8.37175 8.00005 3.09375 14.6265 3.20942L46.6357 3.76814C48.0038 3.79202 48.9445 5.15178 48.4844 6.44037L37.1275 38.247Z" fill="url(#paint0_linear_20_2)"/>
</g>
<defs>
<linearGradient id="paint0_linear_20_2" x1="9.49999" y1="38" x2="47" y2="5" gradientUnits="userSpaceOnUse">
<stop stop-color="#F34953"/>
<stop offset="0.940972" stop-color="#BD00FF"/>
</linearGradient>
</defs>
</svg>
