<svg width="32" height="36" viewBox="0 0 32 36" fill="none" xmlns="http://www.w3.org/2000/svg">
<g filter="url(#filter0_d_2_23)">
<mask id="mask0_2_23" style="mask-type:alpha" maskUnits="userSpaceOnUse" x="4" y="4" width="24" height="24">
<path d="M13.573 5.37763C15.0202 4.29116 16.9798 4.29116 18.427 5.37763L25.8447 10.9466C27.2919 12.0331 27.8974 13.9589 27.3447 15.7169L24.5113 24.7276C23.9586 26.4855 22.3732 27.6758 20.5844 27.6758H11.4156C9.6268 27.6758 8.04143 26.4855 7.48865 24.7276L4.65535 15.7169C4.10257 13.9589 4.70813 12.0331 6.15528 10.9466L13.573 5.37763Z" fill="#D9D9D9"/>
</mask>
<g mask="url(#mask0_2_23)">
<g filter="url(#filter1_f_2_23)">
<path d="M17.2043 23.8222C22.7153 23.8222 27.1828 19.0466 27.1828 13.1556C27.1828 7.26452 22.7153 2.48889 17.2043 2.48889C11.6933 2.48889 7.2258 7.26452 7.2258 13.1556C7.2258 19.0466 11.6933 23.8222 17.2043 23.8222Z" fill="url(#paint0_linear_2_23)"/>
</g>
<g filter="url(#filter2_f_2_23)">
<path d="M20.3011 36.6222C25.812 36.6222 30.2796 31.8466 30.2796 25.9555C30.2796 20.0645 25.812 15.2889 20.3011 15.2889C14.7901 15.2889 10.3226 20.0645 10.3226 25.9555C10.3226 31.8466 14.7901 36.6222 20.3011 36.6222Z" fill="url(#paint1_linear_2_23)"/>
</g>
<g filter="url(#filter3_f_2_23)">
<path d="M8.25807 32C13.769 32 18.2366 27.2244 18.2366 21.3333C18.2366 15.4423 13.769 10.6667 8.25807 10.6667C2.7471 10.6667 -1.72043 15.4423 -1.72043 21.3333C-1.72043 27.2244 2.7471 32 8.25807 32Z" fill="url(#paint2_linear_2_23)"/>
</g>
</g>
</g>
<defs>
<filter id="filter0_d_2_23" x="-4" y="0" width="40" height="40" filterUnits="userSpaceOnUse" color-interpolation-filters="sRGB">
<feFlood flood-opacity="0" result="BackgroundImageFix"/>
<feColorMatrix in="SourceAlpha" type="matrix" values="0 0 0 0 0 0 0 0 0 0 0 0 0 0 0 0 0 0 127 0" result="hardAlpha"/>
<feOffset dy="4"/>
<feGaussianBlur stdDeviation="2"/>
<feComposite in2="hardAlpha" operator="out"/>
<feColorMatrix type="matrix" values="0 0 0 0 0 0 0 0 0 0 0 0 0 0 0 0 0 0 0.25 0"/>
<feBlend mode="normal" in2="BackgroundImageFix" result="effect1_dropShadow_2_23"/>
<feBlend mode="normal" in="SourceGraphic" in2="effect1_dropShadow_2_23" result="shape"/>
</filter>
<filter id="filter1_f_2_23" x="-5.7742" y="-10.5111" width="45.957" height="47.3333" filterUnits="userSpaceOnUse" color-interpolation-filters="sRGB">
<feFlood flood-opacity="0" result="BackgroundImageFix"/>
<feBlend mode="normal" in="SourceGraphic" in2="BackgroundImageFix" result="shape"/>
<feGaussianBlur stdDeviation="6.5" result="effect1_foregroundBlur_2_23"/>
</filter>
<filter id="filter2_f_2_23" x="-2.67743" y="2.28888" width="45.957" height="47.3333" filterUnits="userSpaceOnUse" color-interpolation-filters="sRGB">
<feFlood flood-opacity="0" result="BackgroundImageFix"/>
<feBlend mode="normal" in="SourceGraphic" in2="BackgroundImageFix" result="shape"/>
<feGaussianBlur stdDeviation="6.5" result="effect1_foregroundBlur_2_23"/>
</filter>
<filter id="filter3_f_2_23" x="-14.7204" y="-2.33334" width="45.957" height="47.3333" filterUnits="userSpaceOnUse" color-interpolation-filters="sRGB">
<feFlood flood-opacity="0" result="BackgroundImageFix"/>
<feBlend mode="normal" in="SourceGraphic" in2="BackgroundImageFix" result="shape"/>
<feGaussianBlur stdDeviation="6.5" result="effect1_foregroundBlur_2_23"/>
</filter>
<linearGradient id="paint0_linear_2_23" x1="17.2043" y1="2.48889" x2="17.2043" y2="23.8222" gradientUnits="userSpaceOnUse">
<stop stop-color="#0057FF"/>
<stop offset="1" stop-color="#AD00FF" stop-opacity="0.69"/>
</linearGradient>
<linearGradient id="paint1_linear_2_23" x1="20.3011" y1="15.2889" x2="20.3011" y2="36.6222" gradientUnits="userSpaceOnUse">
<stop stop-color="#0057FF"/>
<stop offset="1" stop-color="#AD00FF" stop-opacity="0.69"/>
</linearGradient>
<linearGradient id="paint2_linear_2_23" x1="8.25807" y1="10.6667" x2="8.25807" y2="32" gradientUnits="userSpaceOnUse">
<stop stop-color="#8F00FF"/>
<stop offset="1" stop-color="#412B97" stop-opacity="0.69"/>
</linearGradient>
</defs>
</svg>
