<svg width="24" height="25" viewBox="0 0 24 25" fill="none" xmlns="http://www.w3.org/2000/svg">
                        <g clip-path="url(#clip0_134_211)">
                            <path d="M20.3175 4.86032C18.7613 4.14612 17.1191 3.63638 15.432 3.34382C15.4167 3.34124 15.401 3.34346 15.3871 3.35018C15.3731 3.35689 15.3615 3.36777 15.354 3.38132C15.1425 3.75632 14.9085 4.24682 14.745 4.63082C12.9264 4.35483 11.0766 4.35483 9.25801 4.63082C9.07563 4.20305 8.8693 3.78588 8.64001 3.38132C8.63231 3.36792 8.62074 3.35717 8.60682 3.35047C8.5929 3.34378 8.57728 3.34146 8.56201 3.34382C6.87451 3.63482 5.23201 4.14482 3.67651 4.86032C3.6632 4.8654 3.65206 4.87494 3.64501 4.88732C0.534009 9.53582 -0.319491 14.0703 0.0990092 18.5478C0.100509 18.5688 0.114009 18.5898 0.130509 18.6033C1.9421 19.9452 3.9684 20.9698 6.12301 21.6333C6.13822 21.6381 6.15457 21.6379 6.16967 21.6328C6.18478 21.6277 6.19786 21.6179 6.20701 21.6048C6.66901 20.9748 7.08001 20.3103 7.43401 19.6113C7.44139 19.5969 7.44391 19.5805 7.44121 19.5646C7.43851 19.5486 7.43072 19.534 7.41901 19.5228C7.41126 19.5155 7.40206 19.5099 7.39201 19.5063C6.74575 19.2579 6.11985 18.9595 5.52001 18.6138C5.50325 18.6043 5.49079 18.5887 5.48521 18.5703C5.47962 18.5519 5.48134 18.532 5.49001 18.5148C5.49511 18.5036 5.50283 18.4939 5.51251 18.4863C5.63851 18.3918 5.76451 18.2928 5.88451 18.1938C5.89511 18.1853 5.90783 18.1798 5.9213 18.178C5.93478 18.1761 5.9485 18.178 5.96101 18.1833C9.88951 19.9773 14.142 19.9773 18.0225 18.1833C18.0355 18.1777 18.0497 18.1757 18.0637 18.1776C18.0777 18.1794 18.091 18.185 18.102 18.1938C18.222 18.2928 18.348 18.3918 18.474 18.4863C18.4842 18.4938 18.4924 18.5037 18.4979 18.5151C18.5033 18.5265 18.5059 18.539 18.5053 18.5517C18.5047 18.5643 18.501 18.5766 18.4945 18.5874C18.488 18.5983 18.4789 18.6073 18.468 18.6138C17.8695 18.9627 17.2428 19.2608 16.5945 19.5048C16.5842 19.5086 16.5748 19.5145 16.567 19.5223C16.5592 19.5301 16.5533 19.5395 16.5495 19.5498C16.546 19.5598 16.5446 19.5705 16.5454 19.581C16.5462 19.5916 16.5491 19.6019 16.554 19.6113C16.914 20.3088 17.3265 20.9748 17.7795 21.6048C17.7887 21.6179 17.8017 21.6277 17.8168 21.6328C17.8319 21.6379 17.8483 21.6381 17.8635 21.6333C20.0217 20.9719 22.0513 19.9472 23.865 18.6033C23.8741 18.597 23.8816 18.5888 23.8871 18.5792C23.8926 18.5696 23.8958 18.5588 23.8965 18.5478C24.3975 13.3713 23.058 8.87432 20.3475 4.88882C20.3448 4.88223 20.3407 4.8763 20.3355 4.87139C20.3304 4.86648 20.3242 4.86271 20.3175 4.86032ZM8.02051 15.8208C6.83701 15.8208 5.86351 14.7348 5.86351 13.4028C5.86351 12.0693 6.81901 10.9833 8.02051 10.9833C9.23101 10.9833 10.1955 12.0783 10.1775 13.4028C10.1775 14.7348 9.22201 15.8208 8.02051 15.8208ZM15.9945 15.8208C14.8125 15.8208 13.8375 14.7348 13.8375 13.4028C13.8375 12.0693 14.793 10.9833 15.9945 10.9833C17.205 10.9833 18.171 12.0783 18.1515 13.4028C18.1515 14.7348 17.205 15.8208 15.9945 15.8208Z" fill="#5842C3" />
                        </g>
                        <defs>
                            <clipPath id="clip0_134_211">
                                <rect width="24" height="24" fill="white" transform="translate(0 0.5)" />
                            </clipPath>
                        </defs>
                    </svg>