<svg width="24" height="24" viewBox="0 0 24 24" fill="none" xmlns="http://www.w3.org/2000/svg">
<path fill-rule="evenodd" clip-rule="evenodd" d="M12 0.5C5.37 0.5 0 5.87 0 12.5C0 17.81 3.435 22.295 8.205 23.885C8.805 23.99 9.03 23.63 9.03 23.315C9.03 23.03 9.015 22.085 9.015 21.08C6 21.635 5.22 20.345 4.98 19.67C4.845 19.325 4.26 18.26 3.75 17.975C3.33 17.75 2.73 17.195 3.735 17.18C4.68 17.165 5.355 18.05 5.58 18.41C6.66 20.225 8.385 19.715 9.075 19.4C9.18 18.62 9.495 18.095 9.84 17.795C7.17 17.495 4.38 16.46 4.38 11.87C4.38 10.565 4.845 9.485 5.61 8.645C5.49 8.345 5.07 7.115 5.73 5.465C5.73 5.465 6.735 5.15 9.03 6.695C9.99 6.425 11.01 6.29 12.03 6.29C13.05 6.29 14.07 6.425 15.03 6.695C17.325 5.135 18.33 5.465 18.33 5.465C18.99 7.115 18.57 8.345 18.45 8.645C19.215 9.485 19.68 10.55 19.68 11.87C19.68 16.475 16.875 17.495 14.205 17.795C14.64 18.17 15.015 18.89 15.015 20.015C15.015 21.62 15 22.91 15 23.315C15 23.63 15.225 24.005 15.825 23.885C18.2072 23.0807 20.2772 21.5497 21.7437 19.5074C23.2101 17.465 23.9993 15.0143 24 12.5C24 5.87 18.63 0.5 12 0.5Z" fill="#707070"/>
</svg>
