<svg width="24" height="25" viewBox="0 0 24 25" fill="none" xmlns="http://www.w3.org/2000/svg">
<path d="M23.643 5.43708C22.808 5.80708 21.911 6.05708 20.968 6.17008C21.941 5.58787 22.669 4.67154 23.016 3.59208C22.1019 4.13507 21.1014 4.51727 20.058 4.72208C19.3564 3.97294 18.4271 3.4764 17.4143 3.30955C16.4016 3.1427 15.3621 3.31487 14.4572 3.79933C13.5524 4.28379 12.8328 5.05344 12.4102 5.98878C11.9875 6.92412 11.8855 7.97283 12.12 8.97208C10.2677 8.87907 8.45564 8.39763 6.80144 7.55898C5.14723 6.72034 3.68785 5.54324 2.51801 4.10408C2.11801 4.79408 1.88801 5.59408 1.88801 6.44608C1.88757 7.21307 2.07644 7.96832 2.43789 8.64481C2.79934 9.3213 3.32217 9.89812 3.96001 10.3241C3.22029 10.3005 2.49688 10.1007 1.85001 9.74108V9.80108C1.84994 10.8768 2.22204 11.9195 2.90319 12.7521C3.58434 13.5847 4.53258 14.156 5.58701 14.3691C4.9008 14.5548 4.18135 14.5821 3.48301 14.4491C3.78051 15.3747 4.36001 16.1841 5.14038 16.764C5.92075 17.3439 6.86293 17.6653 7.83501 17.6831C6.18484 18.9785 4.1469 19.6812 2.04901 19.6781C1.67739 19.6782 1.30609 19.6565 0.937012 19.6131C3.06649 20.9823 5.54535 21.7089 8.07701 21.7061C16.647 21.7061 21.332 14.6081 21.332 8.45208C21.332 8.25208 21.327 8.05008 21.318 7.85008C22.2293 7.19105 23.0159 6.37497 23.641 5.44008L23.643 5.43708Z" fill="#0954A5"/>
</svg>
