<svg width="100" height="100" viewBox="0 0 100 100" fill="none" xmlns="http://www.w3.org/2000/svg">
<rect width="100" height="100" rx="24" fill="white"/>
<mask id="mask0_2_9" style="mask-type:alpha" maskUnits="userSpaceOnUse" x="12" y="13" width="75" height="75">
<path d="M42.4466 18.1246C46.6524 15.0689 52.3476 15.0689 56.5534 18.1246L78.1112 33.7872C82.317 36.843 84.0769 42.2594 82.4705 47.2037L74.2361 72.5463C72.6296 77.4906 68.0222 80.8381 62.8234 80.8381H36.1766C30.9779 80.8381 26.3704 77.4906 24.7639 72.5463L16.5296 47.2037C14.9231 42.2594 16.683 36.843 20.8888 33.7872L42.4466 18.1246Z" fill="#D9D9D9"/>
</mask>
<g mask="url(#mask0_2_9)">
<g filter="url(#filter0_f_2_9)">
<ellipse cx="53" cy="40" rx="29" ry="30" fill="url(#paint0_linear_2_9)"/>
</g>
<g filter="url(#filter1_f_2_9)">
<ellipse cx="62" cy="76" rx="29" ry="30" fill="url(#paint1_linear_2_9)"/>
</g>
<g filter="url(#filter2_f_2_9)">
<ellipse cx="27" cy="63" rx="29" ry="30" fill="url(#paint2_linear_2_9)"/>
</g>
</g>
<defs>
<filter id="filter0_f_2_9" x="11" y="-3" width="84" height="86" filterUnits="userSpaceOnUse" color-interpolation-filters="sRGB">
<feFlood flood-opacity="0" result="BackgroundImageFix"/>
<feBlend mode="normal" in="SourceGraphic" in2="BackgroundImageFix" result="shape"/>
<feGaussianBlur stdDeviation="6.5" result="effect1_foregroundBlur_2_9"/>
</filter>
<filter id="filter1_f_2_9" x="20" y="33" width="84" height="86" filterUnits="userSpaceOnUse" color-interpolation-filters="sRGB">
<feFlood flood-opacity="0" result="BackgroundImageFix"/>
<feBlend mode="normal" in="SourceGraphic" in2="BackgroundImageFix" result="shape"/>
<feGaussianBlur stdDeviation="6.5" result="effect1_foregroundBlur_2_9"/>
</filter>
<filter id="filter2_f_2_9" x="-15" y="20" width="84" height="86" filterUnits="userSpaceOnUse" color-interpolation-filters="sRGB">
<feFlood flood-opacity="0" result="BackgroundImageFix"/>
<feBlend mode="normal" in="SourceGraphic" in2="BackgroundImageFix" result="shape"/>
<feGaussianBlur stdDeviation="6.5" result="effect1_foregroundBlur_2_9"/>
</filter>
<linearGradient id="paint0_linear_2_9" x1="53" y1="10" x2="53" y2="70" gradientUnits="userSpaceOnUse">
<stop stop-color="#0057FF"/>
<stop offset="1" stop-color="#AD00FF" stop-opacity="0.69"/>
</linearGradient>
<linearGradient id="paint1_linear_2_9" x1="62" y1="46" x2="62" y2="106" gradientUnits="userSpaceOnUse">
<stop stop-color="#0057FF"/>
<stop offset="1" stop-color="#AD00FF" stop-opacity="0.69"/>
</linearGradient>
<linearGradient id="paint2_linear_2_9" x1="27" y1="33" x2="27" y2="93" gradientUnits="userSpaceOnUse">
<stop stop-color="#8F00FF"/>
<stop offset="1" stop-color="#412B97" stop-opacity="0.69"/>
</linearGradient>
</defs>
</svg>
