<svg width="1440" height="681" viewBox="0 0 1440 681" fill="none" xmlns="http://www.w3.org/2000/svg">
<g clip-path="url(#clip0_234_40)">
<path d="M0.5 0.5H1439.5V680.5H0.5V0.5Z" fill="#0F151B" stroke="#BF7AF0"/>
<g opacity="0.4">
<path d="M0.5 45.5H1439.5V1364.5H0.5V45.5Z" fill="#221527" stroke="#BF7AF0"/>
<path d="M0.500031 -3L0.5 717" stroke="#BF7AF0"/>
<path d="M1464 21.5H-24" stroke="#BF7AF0"/>
<path d="M1464 45.5H-24" stroke="#BF7AF0"/>
<path d="M1464 69.5H-24" stroke="#BF7AF0"/>
<path d="M1464 93.5H-24" stroke="#BF7AF0"/>
<path d="M1464 117.5H-24" stroke="#BF7AF0"/>
<path d="M1464 141.5H-24" stroke="#BF7AF0"/>
<path d="M1464 165.5H-24" stroke="#BF7AF0"/>
<path d="M1464 189.5H-24" stroke="#BF7AF0"/>
<path d="M1464 213.5H-24" stroke="#BF7AF0"/>
<path d="M1464 237.5H-24" stroke="#BF7AF0"/>
<path d="M1464 261.5H-24" stroke="#BF7AF0"/>
<path d="M1464 285.5H-24" stroke="#BF7AF0"/>
<path d="M1464 309.5H-24" stroke="#BF7AF0"/>
<path d="M1464 333.5H-24" stroke="#BF7AF0"/>
<path d="M1464 357.5H-24" stroke="#BF7AF0"/>
<path d="M1464 381.5H-24" stroke="#BF7AF0"/>
<path d="M1464 405.5H-24" stroke="#BF7AF0"/>
<path d="M1464 429.5H-24" stroke="#BF7AF0"/>
<path d="M1464 453.5H-24" stroke="#BF7AF0"/>
<path d="M1464 477.5H-24" stroke="#BF7AF0"/>
<path d="M1464 501.5H-24" stroke="#BF7AF0"/>
<path d="M1464 525.5H-24" stroke="#BF7AF0"/>
<path d="M1464 549.5H-24" stroke="#BF7AF0"/>
<path d="M1464 573.5H-24" stroke="#BF7AF0"/>
<path d="M1464 597.5H-24" stroke="#BF7AF0"/>
<path d="M1464 621.5H-24" stroke="#BF7AF0"/>
<path d="M1464 645.5H-24" stroke="#BF7AF0"/>
<path d="M1464 669.5H-24" stroke="#BF7AF0"/>
<path d="M24.5 -3V717" stroke="#BF7AF0"/>
<path d="M24.5 -3V717" stroke="#BF7AF0"/>
<path d="M48.5 -3V717" stroke="#BF7AF0"/>
<path d="M72.5 -3V717" stroke="#BF7AF0"/>
<path d="M96.5 -3V717" stroke="#BF7AF0"/>
<path d="M120.5 -3V717" stroke="#BF7AF0"/>
<path d="M144.5 -3V717" stroke="#BF7AF0"/>
<path d="M168.5 -3V717" stroke="#BF7AF0"/>
<path d="M192.5 -3V717" stroke="#BF7AF0"/>
<path d="M216.5 -3V717" stroke="#BF7AF0"/>
<path d="M240.5 -3V717" stroke="#BF7AF0"/>
<path d="M264.5 -3V717" stroke="#BF7AF0"/>
<path d="M288.5 -3V717" stroke="#BF7AF0"/>
<path d="M312.5 -3V717" stroke="#BF7AF0"/>
<path d="M336.5 -3V717" stroke="#BF7AF0"/>
<path d="M360.5 -3V717" stroke="#BF7AF0"/>
<path d="M384.5 -3V717" stroke="#BF7AF0"/>
<path d="M408.5 -3V717" stroke="#BF7AF0"/>
<path d="M432.5 -3V717" stroke="#BF7AF0"/>
<path d="M456.5 -3V717" stroke="#BF7AF0"/>
<path d="M480.5 -3V717" stroke="#BF7AF0"/>
<path d="M504.5 -3V717" stroke="#BF7AF0"/>
<path d="M528.5 -3V717" stroke="#BF7AF0"/>
<path d="M552.5 -3V717" stroke="#BF7AF0"/>
<path d="M576.5 -3V717" stroke="#BF7AF0"/>
<path d="M600.5 -3V717" stroke="#BF7AF0"/>
<path d="M624.5 -3V717" stroke="#BF7AF0"/>
<path d="M648.5 -3V717" stroke="#BF7AF0"/>
<path d="M672.5 -3V717" stroke="#BF7AF0"/>
<path d="M696.5 -3V717" stroke="#BF7AF0"/>
<path d="M720.5 -3V717" stroke="#BF7AF0"/>
<path d="M744.5 -3V717" stroke="#BF7AF0"/>
<path d="M768.5 -3V717" stroke="#BF7AF0"/>
<path d="M792.5 -3V717" stroke="#BF7AF0"/>
<path d="M816.5 -3V717" stroke="#BF7AF0"/>
<path d="M840.5 -3V717" stroke="#BF7AF0"/>
<path d="M864.5 -3V717" stroke="#BF7AF0"/>
<path d="M888.5 -3V717" stroke="#BF7AF0"/>
<path d="M912.5 -3V717" stroke="#BF7AF0"/>
<path d="M936.5 -3V717" stroke="#BF7AF0"/>
<path d="M960.5 -3V717" stroke="#BF7AF0"/>
<path d="M984.5 -3V717" stroke="#BF7AF0"/>
<path d="M1008.5 -3V717" stroke="#BF7AF0"/>
<path d="M1032.5 -3V717" stroke="#BF7AF0"/>
<path d="M1056.5 -3V717" stroke="#BF7AF0"/>
<path d="M1080.5 -3V717" stroke="#BF7AF0"/>
<path d="M1104.5 -3V717" stroke="#BF7AF0"/>
<path d="M1128.5 -3V717" stroke="#BF7AF0"/>
<path d="M1152.5 -3V717" stroke="#BF7AF0"/>
<path d="M1176.5 -3V717" stroke="#BF7AF0"/>
<path d="M1200.5 -3V717" stroke="#BF7AF0"/>
<path d="M1224.5 -3V717" stroke="#BF7AF0"/>
<path d="M1248.5 -3V717" stroke="#BF7AF0"/>
<path d="M1272.5 -3V717" stroke="#BF7AF0"/>
<path d="M1296.5 -3V717" stroke="#BF7AF0"/>
<path d="M1320.5 -3V717" stroke="#BF7AF0"/>
<path d="M1344.5 -3V717" stroke="#BF7AF0"/>
<path d="M1368.5 -3V717" stroke="#BF7AF0"/>
<path d="M1392.5 -3V717" stroke="#BF7AF0"/>
<path d="M1416.5 -3V717" stroke="#BF7AF0"/>
</g>
<path d="M1440 0H0V681H1440V0Z" fill="url(#paint0_radial_234_40)"/>
</g>
<defs>
<radialGradient id="paint0_radial_234_40" cx="0" cy="0" r="1" gradientUnits="userSpaceOnUse" gradientTransform="translate(720 340.5) rotate(90) scale(340.5 720)">
<stop stop-color="#231729" stop-opacity="0.66"/>
<stop offset="1" stop-color="#221527"/>
</radialGradient>
<clipPath id="clip0_234_40">
<rect width="1440" height="681" fill="white"/>
</clipPath>
</defs>
</svg>
